<svg width="119" height="40" viewBox="0 0 119 40" fill="none" xmlns="http://www.w3.org/2000/svg">
<g clip-path="url(#clip0_259_9069)">
<path d="M44.1348 16.5783V14.195H48.5094C48.5191 14.3972 48.5408 14.6065 48.5408 14.8158C48.5408 20.3531 48.5408 25.8881 48.5433 31.4254C48.5433 32.6813 48.4056 33.9062 47.9297 35.086C47.0408 37.2981 45.4054 38.7347 43.1275 39.415C40.3713 40.2356 37.6006 40.2665 34.941 39.0487C32.8611 38.0973 31.5688 36.4798 31.1751 34.2202C31.1557 34.1084 31.163 33.9919 31.1533 33.7992C32.4432 33.7992 33.7042 33.7921 34.9651 33.8111C35.0763 33.8111 35.2454 33.9633 35.2864 34.0799C35.7744 35.4309 36.8324 36.0755 38.19 36.2515C38.9775 36.3538 39.8036 36.3752 40.5887 36.2705C42.5042 36.016 43.6662 34.9837 43.9971 33.1047C44.2072 31.9177 44.1444 30.6856 44.2024 29.4749C44.1444 29.4535 44.0865 29.4345 44.0261 29.4131C43.915 29.5035 43.7869 29.5772 43.6976 29.6843C41.823 31.9177 39.3785 32.4434 36.6271 31.8821C33.2766 31.1994 30.8997 28.6615 30.2909 25.1317C29.8658 22.6603 30.047 20.2342 31.2306 17.965C33.238 14.1189 38.0716 12.5918 41.84 14.6517C42.5381 15.0322 43.0767 15.6935 43.6927 16.2239C43.7894 16.3072 43.8932 16.3857 44.13 16.5783H44.1348ZM34.6221 22.9386C34.6221 23.1765 34.6052 23.4143 34.6245 23.6498C34.7888 25.7406 36.0618 27.427 37.8615 27.9455C39.9365 28.5425 42.0115 27.9217 43.1927 26.2996C44.171 24.9557 44.357 23.4239 44.1203 21.8302C43.5502 17.9912 39.7311 16.859 37.0957 18.2576C35.2429 19.2399 34.6125 20.9573 34.6221 22.941V22.9386Z" fill="white"/>
<path d="M0.000462481 31.7866V8.36713C0.200958 8.35286 0.374881 8.33145 0.551221 8.33145C3.00306 8.33145 5.45732 8.3148 7.90916 8.33383C10.6098 8.35524 13.1752 8.87376 15.4555 10.4008C17.7407 11.9302 19.178 14.0448 19.7843 16.6684C20.5524 19.9817 20.3664 23.238 18.719 26.2944C17.1778 29.1559 14.6559 30.7685 11.4939 31.4298C10.3827 31.6629 9.22808 31.7771 8.09033 31.8008C5.53945 31.8555 2.98374 31.8199 0.43044 31.8175C0.312076 31.8175 0.191295 31.8008 -0.00195312 31.7866H0.000462481ZM4.5563 28.0284C6.38974 27.919 8.17004 27.9571 9.8972 27.6764C12.279 27.2887 13.982 25.8758 14.8564 23.6399C15.6971 21.4897 15.7478 19.2681 15.0594 17.068C14.3709 14.8701 12.9264 13.3241 10.6436 12.6747C9.78608 12.4321 8.87782 12.3132 7.98646 12.2585C6.85354 12.1895 5.71337 12.2418 4.55871 12.2418V28.0308L4.5563 28.0284Z" fill="white"/>
<path d="M114.722 16.5471V6.70459H119.169V31.7724H114.848V29.4913C114.64 29.6317 114.512 29.6792 114.437 29.772C112.495 32.1839 109.922 32.6382 107.06 31.9841C103.678 31.211 101.357 28.5042 100.876 24.9031C100.555 22.4983 100.835 20.184 101.924 17.9743C103.782 14.2019 108.831 12.5844 112.526 14.6609C113.205 15.0415 113.734 15.6837 114.331 16.2046C114.415 16.2783 114.502 16.3545 114.722 16.5471ZM114.86 22.6505C114.809 22.3461 114.763 21.73 114.594 21.1449C114.111 19.468 113.053 18.274 111.294 17.8553C109.384 17.3987 107.649 17.8078 106.427 19.3871C105.028 21.1972 104.925 23.2523 105.664 25.3574C106.811 28.6231 110.865 29.0251 112.884 27.4148C114.324 26.266 114.833 24.7152 114.858 22.6482L114.86 22.6505Z" fill="white"/>
<path d="M84.4541 8.36523H99.3536V12.1876H88.964V17.6631H97.5298V21.4807H88.9665V27.9575H99.3536V31.7823H84.4541V8.36523Z" fill="white"/>
<path d="M65.8617 14.1589H70.7774V17.672H65.9028C65.8907 17.9384 65.8713 18.1311 65.8713 18.3238C65.8713 20.6952 65.8689 23.0667 65.8713 25.4381C65.8713 25.733 65.8834 26.0327 65.9293 26.3229C66.1008 27.4194 66.7096 28.026 67.828 28.1378C68.5648 28.2115 69.3112 28.1901 70.0552 28.2067C70.2895 28.2115 70.5238 28.2067 70.7919 28.2067V31.8174C68.9826 31.7556 67.1903 32.0339 65.439 31.5724C63.1031 30.9588 61.6682 29.3223 61.5329 26.9485C61.4073 24.7221 61.4605 22.4863 61.4411 20.2528C61.4339 19.4251 61.4411 18.5949 61.4411 17.6958H58.4434V14.1518C59.0859 14.1518 59.7019 14.1589 60.3179 14.1518C61.2817 14.1375 61.7141 13.7212 61.7286 12.7674C61.7455 11.6638 61.7334 10.5625 61.7334 9.41602H65.8593V14.1589H65.8617Z" fill="white"/>
<path d="M51.3265 14.1924H55.6504V31.7367C55.5658 31.7582 55.4547 31.8081 55.3436 31.8081C54.1382 31.8152 52.9328 31.8057 51.7274 31.8176C51.4062 31.82 51.2564 31.7367 51.2588 31.3871C51.2685 25.738 51.2661 20.0889 51.2709 14.4421C51.2709 14.3684 51.3023 14.2947 51.3289 14.1924H51.3265Z" fill="white"/>
<path d="M22.9795 14.1899H27.3155V31.7605H22.9795V14.1899Z" fill="white"/>
<path d="M81.63 13.0126C81.63 14.3374 81.6059 15.6623 81.6421 16.9848C81.6566 17.5033 81.4585 17.6294 80.9802 17.6127C80.1782 17.5866 79.3714 17.5889 78.5694 17.6127C78.1105 17.627 77.9366 17.4867 77.9486 17.0062C77.98 15.5434 77.9414 14.0805 77.9704 12.6201C77.98 12.1254 77.8134 11.9684 77.3182 11.9779C75.8301 12.0017 74.3421 11.9731 72.8565 11.9945C72.4217 12.0017 72.243 11.8851 72.2599 11.4308C72.2913 10.5817 72.284 9.73014 72.2623 8.88098C72.2526 8.49328 72.3976 8.36721 72.7865 8.36721C75.5596 8.37911 78.3351 8.38148 81.1082 8.36721C81.5503 8.36483 81.6445 8.52896 81.6397 8.92618C81.6203 10.2891 81.6324 11.6544 81.6324 13.0173L81.63 13.0126Z" fill="#E41F46"/>
<path d="M56.2169 9.38046C56.2097 10.898 54.9922 12.0801 53.4511 12.0635C51.9147 12.0492 50.7287 10.848 50.7383 9.31861C50.748 7.84865 51.9703 6.6665 53.4801 6.6665C55.0188 6.6665 56.2242 7.86293 56.2169 9.38046Z" fill="white"/>
<path d="M27.8887 9.3662C27.8742 10.8885 26.6736 12.0611 25.1252 12.0635C23.6082 12.0659 22.3932 10.8481 22.4004 9.33052C22.4053 7.86532 23.6396 6.66176 25.1325 6.66652C26.6833 6.67128 27.9032 7.86532 27.8887 9.3662Z" fill="white"/>
</g>
<defs>
<clipPath id="clip0_259_9069">
<rect width="118.889" height="40" fill="white"/>
</clipPath>
</defs>
</svg>
